# xmcd CD database file
#
# Track frame offsets:
#	150
#	24530
#	41860
#	64087
#	76201
#	92023
#	113933
#	123489
#	162266
#	174319
#
# Disc length: 2512 seconds
#
# Revision: 0
# Processed by: cddbd v1.5.2PL0 Copyright (c) Steve Scherf et al.
# Submitted via: CDex 1.51
#
DISCID=7c09ce0a
DTITLE=B.B. KING - Collector's Edition cd-1
DYEAR=2008
DGENRE=Blues
TTITLE0=The Thrill Is Gone
TTITLE1=To Know You Is To Love 
TTITLE2=Confessin' The Blues
TTITLE3=Everday I Have The Blues
TTITLE4=I Like To Live The Love
TTITLE5=I'll Survive
TTITLE6=Sneakin' Around
TTITLE7=Why I Sing The Blues
TTITLE8=Fools Get Wise
TTITLE9=Ask Me No Questions
EXTD=YEAR: 2008
EXTT0=
EXTT1=
EXTT2=
EXTT3=
EXTT4=
EXTT5=
EXTT6=
EXTT7=
EXTT8=
EXTT9=
PLAYORDER=
